<?xml version="1.0" encoding="utf-8"?>
<!-- Generator: Adobe Illustrator 24.0.2, SVG Export Plug-In . SVG Version: 6.00 Build 0)  -->
<svg version="1.1" id="Camada_1" xmlns="http://www.w3.org/2000/svg" xmlns:xlink="http://www.w3.org/1999/xlink" x="0px" y="0px"
	 viewBox="0 0 89.2 34.8" style="enable-background:new 0 0 89.2 34.8;" xml:space="preserve">
<style type="text/css">
	.st0{fill:#21A9B1;}
	.st1{fill:#2D3748;}
	.st2{fill-rule:evenodd;clip-rule:evenodd;fill:#21A9B1;}
</style>
<g>
	<path class="st0" d="M9.2,30.2h2.3v-3.4l2.4,0c2.1,0,3.8-1.6,3.8-3.7c0-2-1.7-3.7-3.8-3.7H9.2L9.2,30.2L9.2,30.2z M11.6,24.7v-3.3
		l2.3,0c1,0,1.7,0.7,1.7,1.6c0,0.2,0,0.5-0.1,0.7c-0.1,0.2-0.2,0.4-0.4,0.6c-0.2,0.2-0.4,0.3-0.6,0.4c-0.2,0.1-0.4,0.1-0.7,0.1H11.6
		z M19.2,30.2h2.2V26c0-1.4,1.5-2.2,2.9-1.6V22c-1.6-0.2-2.5,0.4-2.9,1.1V22h-2.2V30.2z M29.2,30.3c1.5,0,3.2-0.8,3.9-2.1l-1.9-0.6
		c-0.5,0.5-1.2,0.7-1.9,0.7c-1,0-1.7-0.5-2-1.4h6.1c0.1-0.6,0.1-1.1,0-1.7c-0.2-0.8-0.5-1.5-1.1-2.1s-1.3-1-2-1.2
		c-0.8-0.2-1.6-0.2-2.3,0.1s-1.4,0.7-1.9,1.3s-0.8,1.4-0.9,2.2c-0.1,0.8,0,1.6,0.4,2.3c0.3,0.7,0.9,1.3,1.6,1.8
		C27.6,30.1,28.4,30.3,29.2,30.3L29.2,30.3z M27.1,25.2c0.1-0.4,0.4-0.8,0.8-1c0.4-0.2,0.8-0.4,1.2-0.4c0.4,0,0.9,0.1,1.2,0.4
		c0.4,0.2,0.6,0.6,0.8,1H27.1z M38.6,30.3c0.8,0,1.7-0.3,2.4-0.7c0.7-0.5,1.2-1.2,1.5-1.9l-2-0.6c-0.1,0.4-0.4,0.7-0.7,0.9
		c-0.3,0.2-0.7,0.3-1.1,0.3c-1.2,0-2.1-1-2.1-2.2c0-1.2,0.9-2.2,2.1-2.2c0.8,0,1.5,0.5,1.8,1.3l2-0.6c-0.3-0.8-0.8-1.5-1.5-1.9
		c-0.7-0.5-1.5-0.7-2.4-0.7c-1.1,0-2.2,0.4-3,1.2c-0.8,0.8-1.2,1.9-1.2,3s0.4,2.2,1.2,3C36.4,29.9,37.5,30.3,38.6,30.3L38.6,30.3z
		 M46.9,30.3c1.2,0,2.1-0.5,2.5-0.9v0.8h2.1v-5.6c0-1.6-1.8-2.7-3.7-2.7c-2,0-3.7,1.1-3.7,2.8l2.1,0c0.2-0.7,0.9-0.8,1.7-0.8
		c0.9,0,1.6,0.3,1.6,1v0.4H47c-1.8,0-3.2,0.7-3.2,2.5C43.8,29.9,45.7,30.3,46.9,30.3z M47.1,28.5c-0.4,0-1-0.1-1.1-0.7
		c-0.1-0.6,0.5-1,1.4-1h1.9C49.3,27.7,48.1,28.5,47.1,28.5z M58.6,30.1v-2.2c-1.7,0.7-2.5,0.1-2.5-0.5l0-3.5h2.4V22h-2.4l0-1.8H54
		l0,1.8h-1.4v1.9h1.4l0,3.5C53.9,29.9,56.1,30.8,58.6,30.1z M62.2,21h2l2.2-2.2h-2.6L62.2,21z M63.6,30.3c0.8,0,1.6-0.2,2.3-0.7
		c0.7-0.5,1.2-1.1,1.6-1.9c0.3-0.8,0.4-1.6,0.2-2.4c-0.2-0.8-0.6-1.6-1.2-2.2s-1.3-1-2.2-1.2c-0.8-0.2-1.7-0.1-2.4,0.2
		s-1.4,0.9-1.9,1.5c-0.5,0.7-0.7,1.5-0.7,2.3c0,1.1,0.4,2.2,1.2,3C61.4,29.9,62.5,30.3,63.6,30.3L63.6,30.3z M63.6,28.3
		c-1.2,0-2.1-1-2.1-2.2c0-0.3,0-0.6,0.1-0.8c0.1-0.3,0.3-0.5,0.5-0.7c0.2-0.2,0.4-0.4,0.7-0.5c0.3-0.1,0.5-0.2,0.8-0.2
		s0.6,0.1,0.8,0.2c0.3,0.1,0.5,0.3,0.7,0.5c0.2,0.2,0.4,0.4,0.5,0.7c0.1,0.3,0.2,0.6,0.1,0.8C65.8,27.2,64.8,28.3,63.6,28.3
		L63.6,28.3z M69,30.2h2.2V26c0-1.4,1.5-2.2,2.9-1.6V22c-1.6-0.2-2.5,0.4-2.9,1.1V22H69V30.2z M76.8,21.3c0.2,0,0.4,0,0.5-0.1
		c0.2-0.1,0.3-0.2,0.4-0.3c0.1-0.1,0.2-0.3,0.3-0.4c0.1-0.2,0.1-0.3,0.1-0.5c0-0.4-0.1-0.7-0.4-1c-0.3-0.3-0.6-0.4-1-0.4
		c-0.4,0-0.7,0.1-1,0.4c-0.3,0.3-0.4,0.6-0.4,1c0,0.2,0,0.4,0.1,0.5c0.1,0.2,0.2,0.3,0.3,0.4c0.1,0.1,0.3,0.2,0.4,0.3
		C76.4,21.2,76.6,21.3,76.8,21.3z M75.6,30.2h2.2V22h-2.2V30.2z M83.5,30.3c0.8,0,1.6-0.2,2.3-0.7c0.7-0.5,1.2-1.1,1.6-1.9
		c0.3-0.8,0.4-1.6,0.2-2.4c-0.2-0.8-0.6-1.6-1.2-2.2c-0.6-0.6-1.3-1-2.2-1.2c-0.8-0.2-1.7-0.1-2.4,0.2c-0.8,0.3-1.4,0.9-1.9,1.5
		c-0.5,0.7-0.7,1.5-0.7,2.3c0,1.1,0.4,2.2,1.2,3C81.3,29.9,82.4,30.3,83.5,30.3L83.5,30.3z M83.5,28.3c-1.2,0-2.1-1-2.1-2.2
		c0-0.3,0-0.6,0.1-0.8c0.1-0.3,0.3-0.5,0.5-0.7c0.2-0.2,0.4-0.4,0.7-0.5c0.3-0.1,0.5-0.2,0.8-0.2c0.3,0,0.6,0.1,0.8,0.2
		c0.3,0.1,0.5,0.3,0.7,0.5c0.2,0.2,0.4,0.4,0.5,0.7c0.1,0.3,0.2,0.6,0.1,0.8C85.6,27.2,84.7,28.3,83.5,28.3L83.5,28.3z"/>
	<path class="st1" d="M20.8,18.7c0.4,0,0.8-0.1,1.1-0.3c0.3-0.2,0.6-0.5,0.7-0.9l-0.8-0.2c-0.1,0.2-0.2,0.3-0.4,0.5
		c-0.2,0.1-0.4,0.2-0.6,0.2c-0.3,0-0.6-0.1-0.9-0.4c-0.2-0.2-0.4-0.6-0.4-0.9s0.1-0.6,0.4-0.9c0.2-0.2,0.6-0.4,0.9-0.4
		c0.2,0,0.4,0.1,0.6,0.2c0.2,0.1,0.3,0.3,0.4,0.5l0.8-0.2c-0.2-0.4-0.4-0.7-0.7-0.9c-0.3-0.2-0.7-0.3-1.1-0.3c-0.3,0-0.6,0-0.8,0.1
		c-0.3,0.1-0.5,0.3-0.7,0.4c-0.2,0.2-0.4,0.4-0.5,0.7c-0.1,0.3-0.2,0.5-0.2,0.8s0.1,0.6,0.2,0.8c0.1,0.3,0.3,0.5,0.5,0.7
		s0.4,0.3,0.7,0.4C20.3,18.7,20.6,18.7,20.8,18.7L20.8,18.7z M22.8,18.7h0.9l0.3-0.8h1.7l0.3,0.8h0.9l-1.3-4.1h-1.3L22.8,18.7z
		 M24.2,17.1l0.6-1.9l0.6,1.9H24.2z M28.9,18.7c0.9,0,1.5-0.4,1.5-1.2c0-0.9-0.8-1.1-1.5-1.3c-0.4-0.1-0.8-0.2-0.8-0.4
		c0-0.2,0.3-0.4,0.7-0.4c0.5,0,0.9,0.1,1.4,0.5V15c-0.4-0.3-0.9-0.4-1.4-0.4c-0.9,0-1.6,0.5-1.6,1.2c0,0.9,0.9,1.1,1.7,1.3
		c0.4,0.1,0.7,0.2,0.7,0.5c0,0.2-0.2,0.4-0.7,0.4s-1-0.1-1.6-0.5v0.9C27.9,18.6,28.3,18.7,28.9,18.7z M30.7,18.7h0.9l0.3-0.8h1.7
		l0.3,0.8h0.9l-1.3-4.1H32L30.7,18.7z M32.1,17.1l0.6-1.9l0.6,1.9H32.1z M36.8,18.7h1.5c1.2,0,2.1-0.9,2.1-2c0-0.3-0.1-0.5-0.2-0.8
		c-0.1-0.2-0.3-0.5-0.5-0.7c-0.2-0.2-0.4-0.3-0.7-0.4c-0.2-0.1-0.5-0.1-0.8-0.1h-1.5V18.7z M37.7,17.9v-2.4h0.7
		c0.3,0,0.6,0.1,0.9,0.4c0.2,0.2,0.4,0.5,0.4,0.9c0,0.3-0.1,0.6-0.4,0.9c-0.2,0.2-0.5,0.4-0.9,0.4L37.7,17.9L37.7,17.9z M42.9,18.7
		c0.4,0,0.8-0.1,1.2-0.4c0.3-0.2,0.6-0.6,0.8-0.9c0.2-0.4,0.2-0.8,0.1-1.2c-0.1-0.4-0.3-0.8-0.6-1.1c-0.3-0.3-0.7-0.5-1.1-0.6
		c-0.4-0.1-0.8,0-1.2,0.1c-0.4,0.2-0.7,0.4-0.9,0.8c-0.2,0.3-0.3,0.7-0.3,1.2c0,0.3,0,0.5,0.2,0.8s0.3,0.5,0.5,0.7
		c0.2,0.2,0.4,0.3,0.7,0.4C42.4,18.7,42.6,18.7,42.9,18.7z M42.9,17.9c-0.7,0-1.2-0.6-1.2-1.3c0-0.2,0-0.3,0.1-0.5
		c0.1-0.1,0.1-0.3,0.3-0.4c0.1-0.1,0.2-0.2,0.4-0.3c0.1-0.1,0.3-0.1,0.5-0.1c0.7,0,1.2,0.6,1.2,1.3C44.1,17.4,43.6,17.9,42.9,17.9z"
		/>
	<path class="st2" d="M27.4,34.2H2.9c-0.6,0-1.3-0.3-1.7-0.7c-0.5-0.5-0.7-1.1-0.7-1.7V17.6c0-0.3,0.1-0.7,0.2-1
		C0.8,16.3,1,16,1.3,15.8L15.1,3.2c0.4-0.4,1-0.6,1.6-0.6s1.2,0.2,1.6,0.6l9,8.2v0.1h-3L17,4.7c-0.1-0.1-0.1-0.1-0.2-0.1
		c-0.1,0-0.2,0-0.2,0.1L2.7,17.4c0,0-0.1,0.1-0.1,0.1c0,0,0,0.1,0,0.1v14.1c0,0.1,0,0.2,0.1,0.2c0.1,0.1,0.2,0.1,0.2,0.1h24.5
		L27.4,34.2L27.4,34.2z"/>
</g>
</svg>
